@startuml

title __GAME-API's Class Diagram__\n

    namespace ca.ulaval.glo4002.game {
      class ca.ulaval.glo4002.game.GameServer {
      }
     namespace ca.ulaval.glo4002.game {
      namespace application.dinosaur {
        class ca.ulaval.glo4002.game.application.dinosaur.DinosaurService {
        }
      }
    
    namespace ca.ulaval.glo4002.game {
      namespace application.resourcesGroup {
        class ca.ulaval.glo4002.game.application.resourcesGroup.ResourceUseCase {
        }
      }
    
    namespace ca.ulaval.glo4002.game {
      namespace application.turn {
        class ca.ulaval.glo4002.game.application.turn.TurnService {
        }
      }
    }
  
  

   
    namespace ca.ulaval.glo4002.game {
      namespace configuration {
        class ca.ulaval.glo4002.game.configuration.AppConfig {
        }
      }
    
    namespace ca.ulaval.glo4002.game {
      namespace configuration {
        class ca.ulaval.glo4002.game.configuration.CustomJsonProvider {
        }
      }
    
    namespace ca.ulaval.glo4002.game {
      namespace controllers.dinosaur {
        class ca.ulaval.glo4002.game.controllers.dinosaur.DinosaurResource {
        }
      }
    
    namespace ca.ulaval.glo4002.game {
      namespace controllers.dinosaur {
        namespace dtos {
          class ca.ulaval.glo4002.game.application.dinosaur.dtos.DinosaurAssembler {
          }
        }
      }
    }

  

   
    namespace ca.ulaval.glo4002.game {
      namespace controllers.dinosaur {
        namespace dtos {
          class ca.ulaval.glo4002.game.controllers.dinosaur.dtos.DinosaurCreationDto {
          }
        }
      }
    }

   
    namespace ca.ulaval.glo4002.game {
      namespace controllers.dinosaur {
        namespace dtos {
          class ca.ulaval.glo4002.game.application.dinosaur.dtos.DinosaurDto {
          }
        }
      }
    
    namespace ca.ulaval.glo4002.game {
      namespace controllers.dinosaur {
        namespace dtos {
          class ca.ulaval.glo4002.game.controllers.dinosaur.dtos.DinosaurDtoAssembler {
          }
        }
      }
    }  

   
    namespace ca.ulaval.glo4002.game {
      namespace controllers.dinosaur {
        namespace dtos {
          class ca.ulaval.glo4002.game.controllers.dinosaur.dtos.DinosaurRequest {
          }
        }
      }
    }
  
    namespace ca.ulaval.glo4002.game {
      namespace controllers.dinosaur {
        namespace dtos {
          class ca.ulaval.glo4002.game.controllers.dinosaur.dtos.DinosaurResponse {
          }
        }
      }
    }
  
    namespace ca.ulaval.glo4002.game {
      namespace controllers.dinosaur {
        namespace dtos {
          class ca.ulaval.glo4002.game.controllers.dinosaur.dtos.DinosaursResponse {
          }
        }
      }
    }
  
    namespace ca.ulaval.glo4002.game {
      namespace controllers.resourcesGroup {
        class ca.ulaval.glo4002.game.controllers.resourcesGroup.ResourceResource {
        }
      }
    }
  
    namespace ca.ulaval.glo4002.game {
      namespace controllers.resourcesGroup {
        namespace dtos {
<<<<<<< HEAD
          class ca.ulaval.glo4002.game.controllers.resourcesGroup.dtos.ResourceAssembler {
=======
          class ca.ulaval.glo4002.game.application.resources.dtos.ResourceAssemblers {
>>>>>>> develop
          }
        }
      }
    }
  
    namespace ca.ulaval.glo4002.game {
      namespace controllers.resourcesGroup {
        namespace dtos {
          class ca.ulaval.glo4002.game.controllers.resourcesGroup.dtos.ResourceCreationDto {
          }
        }
      }
    }
  
    namespace ca.ulaval.glo4002.game {
      namespace controllers.resourcesGroup {
        namespace dtos {
<<<<<<< HEAD
          class ca.ulaval.glo4002.game.controllers.resourcesGroup.dtos.ResourceDto {
=======
          class ca.ulaval.glo4002.game.application.resources.dtos.ResourcesDto {
>>>>>>> develop
          }
        }
      }
    }
  
    namespace ca.ulaval.glo4002.game {
      namespace controllers.resourcesGroup {
        namespace dtos {
          class ca.ulaval.glo4002.game.controllers.resourcesGroup.dtos.ResourceDtoAssembler {
          }
        }
      }
    }
  
    namespace ca.ulaval.glo4002.game {
      namespace controllers.resourcesGroup {
        namespace dtos {
          class ca.ulaval.glo4002.game.controllers.resourcesGroup.dtos.ResourceRequest {
          }
        }
      }
    }
  
    namespace ca.ulaval.glo4002.game {
      namespace controllers.resourcesGroup {
        namespace dtos {
          class ca.ulaval.glo4002.game.controllers.resourcesGroup.dtos.ResourceResponse {
          }
        }
      }
    }
  
    namespace ca.ulaval.glo4002.game {
      namespace controllers.resourcesGroup {
        namespace dtos {
          class ca.ulaval.glo4002.game.controllers.resourcesGroup.dtos.ResourcesResponse {
          }
        }
      }
    }
  
    namespace ca.ulaval.glo4002.game {
      namespace controllers.turn {
        class ca.ulaval.glo4002.game.controllers.turn.TurnResource {
        }
      }
    }
  
    namespace ca.ulaval.glo4002.game {
      namespace controllers.turn {
        namespace dtos {
          class ca.ulaval.glo4002.game.controllers.turn.dtos.TurnAssembler {
          }
        }
      }
    }
  
    namespace ca.ulaval.glo4002.game {
      namespace controllers.turn {
        namespace dtos {
          class ca.ulaval.glo4002.game.controllers.turn.dtos.TurnCreationDto {
          }
        }
      }
    }
  
    namespace ca.ulaval.glo4002.game {
      namespace controllers.turn {
        namespace dtos {
          class ca.ulaval.glo4002.game.controllers.turn.dtos.TurnDtoAssembler {
          }
        }
      }
    }
  
    namespace ca.ulaval.glo4002.game {
      namespace controllers.turn {
        namespace dtos {
          class ca.ulaval.glo4002.game.controllers.turn.dtos.TurnResponse {
          }
        }
      }
    }
  
    namespace ca.ulaval.glo4002.game {
      namespace domain.actions {
        abstract class ca.ulaval.glo4002.game.domain.actions.Action {
        }
      }
    }
  
    namespace ca.ulaval.glo4002.game {
      namespace domain.actions {
        class ca.ulaval.glo4002.game.domain.actions.ActionFactory {
        }
      }
    }
  
    namespace ca.ulaval.glo4002.game {
      namespace domain.actions {
        interface ca.ulaval.glo4002.game.domain.actions.ActionRepository {
        }
      }
    }
  
    namespace ca.ulaval.glo4002.game {
      namespace domain.actions {
        class ca.ulaval.glo4002.game.domain.actions.AddDino {
        }
      }
    }
  
    namespace ca.ulaval.glo4002.game {
      namespace domain.actions {
        class ca.ulaval.glo4002.game.domain.actions.AddResource {
        }
      }
    }
  
    namespace ca.ulaval.glo4002.game {
      namespace domain.actions {
        enum Command {
        }
      }
    }
  
    namespace ca.ulaval.glo4002.game {
      namespace domain.dinosaur {
        class ca.ulaval.glo4002.game.domain.dinosaur.Dinosaur {
        }
      }
    }
  
    namespace ca.ulaval.glo4002.game {
      namespace domain.dinosaur {
        class ca.ulaval.glo4002.game.application.dinosaur.DinosaurFactory {
        }
      }
    }
  
    namespace ca.ulaval.glo4002.game {
      namespace domain.dinosaur {
        interface ca.ulaval.glo4002.game.domain.dinosaur.DinosaurRepository {
        }
      }
    }
  
    namespace ca.ulaval.glo4002.game {
      namespace domain.dinosaur {
        namespace enums {
          enum DietType {
          }
        }
      }
    }
  
    namespace ca.ulaval.glo4002.game {
      namespace domain.dinosaur {
        namespace enums {
          class ca.ulaval.glo4002.game.domain.dinosaur.enums.SpeciesDietsCorrespondances {
          }
        }
      }
    }
  
    namespace ca.ulaval.glo4002.game {
      namespace domain.resourcesGroup {
        class ca.ulaval.glo4002.game.domain.resourcesGroup.Burger {
        }
      }
    }
  
    namespace ca.ulaval.glo4002.game {
      namespace domain.resourcesGroup {
        class ca.ulaval.glo4002.game.domain.resources.ResourceGrouprces {
        }
      }
    }
  
    namespace ca.ulaval.glo4002.game {
      namespace domain.resourcesGroup {
        abstract class ca.ulaval.glo4002.game.domain.resourcesGroup.Resource {
        }
      }
    }
  
    namespace ca.ulaval.glo4002.game {
      namespace domain.resourcesGroup {
        class ca.ulaval.glo4002.game.domain.resourcesGroup.ResourcesFactory {
        }
      }
    }
  
    namespace ca.ulaval.glo4002.game {
      namespace domain.resourcesGroup {
        interface ca.ulaval.glo4002.game.domain.resourcesGroup.ResourceRepository {
        }
      }
    }
  
    namespace ca.ulaval.glo4002.game {
      namespace domain.resourcesGroup {
        class ca.ulaval.glo4002.game.domain.resourcesGroup.Salad {
        }
      }
    }
  
    namespace ca.ulaval.glo4002.game {
      namespace domain.resourcesGroup {
        class ca.ulaval.glo4002.game.domain.resourcesGroup.Water {
        }
      }
    }
  
    namespace ca.ulaval.glo4002.game {
      namespace domain.turn {
        class ca.ulaval.glo4002.game.domain.turn.Turn {
        }
      }
    }
  
    namespace ca.ulaval.glo4002.game {
      namespace domain.turn {
        class ca.ulaval.glo4002.game.domain.turn.TurnFactory {
        }
      }
    }
  
    namespace ca.ulaval.glo4002.game {
      namespace domain.turn {
        interface ca.ulaval.glo4002.game.domain.game.GameRepository {
        }
      }
    }
  
    namespace ca.ulaval.glo4002.game {
      namespace exceptions {
        enum ExceptionErrorAndDescription {
        }
      }
    }
  
    namespace ca.ulaval.glo4002.game {
      namespace exceptions {
        abstract class ca.ulaval.glo4002.game.controllers.exceptions.ExceptionsMapper {
        }
      }
    }
  
    namespace ca.ulaval.glo4002.game {
      namespace exceptions {
        namespace dtos {
          class ca.ulaval.glo4002.game.controllers.exceptionMappers.dtos.ExceptionResponse {
          }
        }
      }
    }
  
    namespace ca.ulaval.glo4002.game {
      namespace exceptions {
        namespace exceptionMappers {
          class ca.ulaval.glo4002.game.controllers.exceptionMappers.DuplicateNameExceptionsMapper {
          }
        }
      }
    }
  
    namespace ca.ulaval.glo4002.game {
      namespace exceptions {
        namespace exceptionMappers {
          class ca.ulaval.glo4002.game.controllers.exceptionMappers.InvalidFatherExceptionsMapper {
          }
        }
      }
    }
  
    namespace ca.ulaval.glo4002.game {
      namespace exceptions {
        namespace exceptionMappers {
          class ca.ulaval.glo4002.game.controllers.exceptionMappers.InvalidGenderExceptionsMapper {
          }
        }
      }
    }
  
    namespace ca.ulaval.glo4002.game {
      namespace exceptions {
        namespace exceptionMappers {
          class ca.ulaval.glo4002.game.controllers.exceptionMappers.InvalidMotherExceptionsMapper {
          }
        }
      }
    }
  
    namespace ca.ulaval.glo4002.game {
      namespace exceptions {
        namespace exceptionMappers {
<<<<<<< HEAD
          class ca.ulaval.glo4002.game.exceptions.exceptionMappers.InvalidResourceQuantityExceptionMapper {
=======
          class ca.ulaval.glo4002.game.controllers.exceptionMappers.InvalidResourceExceptionsMapper {
>>>>>>> develop
          }
        }
      }
    }
  
    namespace ca.ulaval.glo4002.game {
      namespace exceptions {
        namespace exceptionMappers {
          class ca.ulaval.glo4002.game.controllers.exceptionMappers.InvalidSpeciesExceptionsMapper {
          }
        }
      }
    }
  
    namespace ca.ulaval.glo4002.game {
      namespace exceptions {
        namespace exceptionMappers {
          class ca.ulaval.glo4002.game.controllers.exceptionMappers.InvalidWeightExceptionsMapper {
          }
        }
      }
    }
  
    namespace ca.ulaval.glo4002.game {
      namespace exceptions {
        namespace exceptionMappers {
          class ca.ulaval.glo4002.game.controllers.exceptionMappers.NotExistentNameExceptionsMapper {
          }
        }
      }
    }
  
    namespace ca.ulaval.glo4002.game {
      namespace exceptions {
        namespace exceptionMappers {
          class ca.ulaval.glo4002.game.controllers.exceptionMappers.UnknownExceptionGrabber {
          }
        }
      }
    }
  
    namespace ca.ulaval.glo4002.game {
      namespace exceptions {
        namespace types {
          class ca.ulaval.glo4002.game.application.dinosaur.DuplicateNameException {
          }
        }
      }
    }
  
    namespace ca.ulaval.glo4002.game {
      namespace exceptions {
        namespace types {
          class ca.ulaval.glo4002.game.application.baby.InvalidFatherException {
          }
        }
      }
    }
  
    namespace ca.ulaval.glo4002.game {
      namespace exceptions {
        namespace types {
          class ca.ulaval.glo4002.game.application.dinosaur.InvalidGenderException {
          }
        }
      }
    }
  
    namespace ca.ulaval.glo4002.game {
      namespace exceptions {
        namespace types {
          class ca.ulaval.glo4002.game.application.baby.InvalidMotherException {
          }
        }
      }
    }
  
    namespace ca.ulaval.glo4002.game {
      namespace exceptions {
        namespace types {
          class ca.ulaval.glo4002.game.application.resources.InvalidResourceQuantityException {
          }
        }
      }
    }
  
    namespace ca.ulaval.glo4002.game {
      namespace exceptions {
        namespace types {
          class ca.ulaval.glo4002.game.application.dinosaur.InvalidSpeciesException {
          }
        }
      }
    }
  
    namespace ca.ulaval.glo4002.game {
      namespace exceptions {
        namespace types {
          class ca.ulaval.glo4002.game.application.dinosaur.InvalidWeightException {
          }
        }
      }
    }
  
    namespace ca.ulaval.glo4002.game {
      namespace exceptions {
        namespace types {
          class ca.ulaval.glo4002.game.domain.actions.NotExistentNameException {
          }
        }
      }
    }
  
    namespace ca.ulaval.glo4002.game {
      namespace heartbeat {
        class ca.ulaval.glo4002.game.heartbeat.HeartbeatResource {
        }
      }
    }
  
    namespace ca.ulaval.glo4002.game {
      namespace heartbeat {
        class ca.ulaval.glo4002.game.heartbeat.HeartbeatResponse {
        }
      }
    }
  
    namespace ca.ulaval.glo4002.game {
      namespace repositories.actions {
        class ca.ulaval.glo4002.game.infrastructure.persistence.actions.ActionRepositoryInMemory {
        }
      }
    }
  
    namespace ca.ulaval.glo4002.game {
      namespace repositories.dinosaur {
        class ca.ulaval.glo4002.game.infrastructure.persistence.dinosaur.DinosaurRepositoryInMemory {
        }
      }
    }
  
    namespace ca.ulaval.glo4002.game {
<<<<<<< HEAD
      namespace repositories.resourcesGroup {
        class ca.ulaval.glo4002.game.repositories.resourcesGroup.ResourceRepositoryInMemory {
=======
      namespace repositories.resources {
        class ca.ulaval.glo4002.game.infrastructure.persistence.resources.PantryRepositoryInMemory {
>>>>>>> develop
        }
      }
    }
  
    namespace ca.ulaval.glo4002.game {
      namespace repositories.turn {
        class ca.ulaval.glo4002.game.infrastructure.persistence.turn.GameRepositoryInMemory {
        }
      }
    }
  }
  

  ca.ulaval.glo4002.game.GameServer .up.|> java.lang.Runnable
  ca.ulaval.glo4002.game.application.dinosaur.DinosaurService o-- ca.ulaval.glo4002.game.domain.actions.ActionFactory : actionFactory
  ca.ulaval.glo4002.game.application.dinosaur.DinosaurService o-- ca.ulaval.glo4002.game.domain.actions.ActionRepository : actionRepository
  ca.ulaval.glo4002.game.application.dinosaur.DinosaurService o-- ca.ulaval.glo4002.game.application.dinosaur.dtos.DinosaurAssembler : dinosaurAssembler
  ca.ulaval.glo4002.game.application.dinosaur.DinosaurService o-- ca.ulaval.glo4002.game.application.dinosaur.DinosaurFactory : dinosaurFactory
  ca.ulaval.glo4002.game.application.dinosaur.DinosaurService o-- ca.ulaval.glo4002.game.domain.dinosaur.DinosaurRepository : dinosaurRepository
<<<<<<< HEAD
  ca.ulaval.glo4002.game.application.resourcesGroup.ResourceUseCase o-- ca.ulaval.glo4002.game.domain.actions.ActionFactory : actionFactory
  ca.ulaval.glo4002.game.application.resourcesGroup.ResourceUseCase o-- ca.ulaval.glo4002.game.domain.actions.ActionRepository : actionRepository
  ca.ulaval.glo4002.game.application.resourcesGroup.ResourceUseCase o-- ca.ulaval.glo4002.game.controllers.resourcesGroup.dtos.ResourceAssembler : resourcesAssembler
  ca.ulaval.glo4002.game.application.resourcesGroup.ResourceUseCase o-- ca.ulaval.glo4002.game.domain.resourcesGroup.ResourcesFactory : resourcesGroupFactory
  ca.ulaval.glo4002.game.application.resourcesGroup.ResourceUseCase o-- ca.ulaval.glo4002.game.domain.resourcesGroup.ResourceRepository : pantryRepository
=======
  ca.ulaval.glo4002.game.application.resources.ResourcesService o-- ca.ulaval.glo4002.game.domain.actions.ActionFactory : actionFactory
  ca.ulaval.glo4002.game.application.resources.ResourcesService o-- ca.ulaval.glo4002.game.domain.actions.ActionRepository : actionRepository
  ca.ulaval.glo4002.game.application.resources.ResourcesService o-- ca.ulaval.glo4002.game.application.resources.dtos.ResourceAssemblers : resourceAssemblers
  ca.ulaval.glo4002.game.application.resources.ResourcesService o-- ca.ulaval.glo4002.game.domain.resources.ResourceFactory : resourceFactory
  ca.ulaval.glo4002.game.application.resources.ResourcesService o-- ca.ulaval.glo4002.game.domain.resources.PantryRepository : pantryRepository
>>>>>>> develop
  ca.ulaval.glo4002.game.application.turn.TurnService o-- ca.ulaval.glo4002.game.domain.actions.ActionRepository : actionRepository
  ca.ulaval.glo4002.game.application.turn.TurnService o-- ca.ulaval.glo4002.game.domain.dinosaur.DinosaurRepository : dinosaurRepository
  ca.ulaval.glo4002.game.application.turn.TurnService o-- ca.ulaval.glo4002.game.domain.resourcesGroup.ResourceRepository : pantryRepository
  ca.ulaval.glo4002.game.application.turn.TurnService o-- ca.ulaval.glo4002.game.controllers.turn.dtos.TurnAssembler : turnAssembler
  ca.ulaval.glo4002.game.application.turn.TurnService o-- ca.ulaval.glo4002.game.domain.turn.TurnFactory : turnFactory
  ca.ulaval.glo4002.game.application.turn.TurnService o-- ca.ulaval.glo4002.game.domain.game.GameRepository : gameRepository
  ca.ulaval.glo4002.game.configuration.CustomJsonProvider -up-|> org.glassfish.jersey.jackson.internal.jackson.jaxrs.json.JacksonJaxbJsonProvider
  ca.ulaval.glo4002.game.controllers.dinosaur.DinosaurResource o-- ca.ulaval.glo4002.game.controllers.dinosaur.dtos.DinosaurDtoAssembler : dinosaurDtoAssembler
  ca.ulaval.glo4002.game.controllers.dinosaur.DinosaurResource o-- ca.ulaval.glo4002.game.application.dinosaur.DinosaurService : dinosaurService
  ca.ulaval.glo4002.game.controllers.dinosaur.dtos.DinosaurDtoAssembler o-- ca.ulaval.glo4002.game.application.dinosaur.DinosaurFactory : dinosaurFactory
  ca.ulaval.glo4002.game.controllers.resourcesGroup.ResourceResource o-- ca.ulaval.glo4002.game.controllers.resourcesGroup.dtos.ResourceDtoAssembler : resourceDtoAssembler
  ca.ulaval.glo4002.game.controllers.resourcesGroup.ResourceResource o-- ca.ulaval.glo4002.game.application.resourcesGroup.ResourceUseCase : resourcesService
  ca.ulaval.glo4002.game.controllers.resourcesGroup.dtos.ResourcesResponse o-- ca.ulaval.glo4002.game.controllers.resourcesGroup.dtos.ResourceResponse : consumed
  ca.ulaval.glo4002.game.controllers.resourcesGroup.dtos.ResourcesResponse o-- ca.ulaval.glo4002.game.controllers.resourcesGroup.dtos.ResourceResponse : expired
  ca.ulaval.glo4002.game.controllers.resourcesGroup.dtos.ResourcesResponse o-- ca.ulaval.glo4002.game.controllers.resourcesGroup.dtos.ResourceResponse : fresh
  ca.ulaval.glo4002.game.controllers.turn.TurnResource o-- ca.ulaval.glo4002.game.controllers.turn.dtos.TurnDtoAssembler : turnDtoAssembler
  ca.ulaval.glo4002.game.controllers.turn.TurnResource o-- ca.ulaval.glo4002.game.application.turn.TurnService : turnService
  ca.ulaval.glo4002.game.domain.actions.AddDino -up-|> ca.ulaval.glo4002.game.domain.actions.Action
  ca.ulaval.glo4002.game.domain.actions.AddResource -up-|> ca.ulaval.glo4002.game.domain.actions.Action
  ca.ulaval.glo4002.game.domain.dinosaur.Dinosaur o-- ca.ulaval.glo4002.game.domain.dinosaur.enums.DietType : diet
  ca.ulaval.glo4002.game.application.dinosaur.DinosaurFactory o-- ca.ulaval.glo4002.game.domain.dinosaur.DinosaurRepository : dinosaurRepository
  ca.ulaval.glo4002.game.application.dinosaur.DinosaurFactory o-- ca.ulaval.glo4002.game.domain.dinosaur.enums.SpeciesDietsCorrespondances : speciesDietsCorrespondances
<<<<<<< HEAD
  ca.ulaval.glo4002.game.domain.resourcesGroup.Burger -up-|> ca.ulaval.glo4002.game.domain.resourcesGroup.Resource
  ca.ulaval.glo4002.game.domain.resourcesGroup.Salad -up-|> ca.ulaval.glo4002.game.domain.resourcesGroup.Resource
  ca.ulaval.glo4002.game.domain.resourcesGroup.Water -up-|> ca.ulaval.glo4002.game.domain.resourcesGroup.Resource
=======
  ca.ulaval.glo4002.game.domain.resources.Burger -up-|> ca.ulaval.glo4002.game.domain.resources.ResourceElements
  ca.ulaval.glo4002.game.domain.resources.Salad -up-|> ca.ulaval.glo4002.game.domain.resources.ResourceElements
  ca.ulaval.glo4002.game.domain.resources.Water -up-|> ca.ulaval.glo4002.game.domain.resources.ResourceElements
<<<<<<< HEAD
  ca.ulaval.glo4002.game.controllers.exceptionMappers.DuplicateNameExceptionsMapper .up.|> javax.ws.rs.ext.ExceptionMapper
  ca.ulaval.glo4002.game.controllers.exceptionMappers.DuplicateNameExceptionsMapper -up-|> ca.ulaval.glo4002.game.controllers.exceptions.ExceptionsMapper
  ca.ulaval.glo4002.game.controllers.exceptionMappers.InvalidFatherExceptionsMapper .up.|> javax.ws.rs.ext.ExceptionMapper
  ca.ulaval.glo4002.game.controllers.exceptionMappers.InvalidFatherExceptionsMapper -up-|> ca.ulaval.glo4002.game.controllers.exceptions.ExceptionsMapper
  ca.ulaval.glo4002.game.controllers.exceptionMappers.InvalidGenderExceptionsMapper .up.|> javax.ws.rs.ext.ExceptionMapper
  ca.ulaval.glo4002.game.controllers.exceptionMappers.InvalidGenderExceptionsMapper -up-|> ca.ulaval.glo4002.game.controllers.exceptions.ExceptionsMapper
  ca.ulaval.glo4002.game.controllers.exceptionMappers.InvalidMotherExceptionsMapper .up.|> javax.ws.rs.ext.ExceptionMapper
  ca.ulaval.glo4002.game.controllers.exceptionMappers.InvalidMotherExceptionsMapper -up-|> ca.ulaval.glo4002.game.controllers.exceptions.ExceptionsMapper
  ca.ulaval.glo4002.game.controllers.exceptionMappers.InvalidResourceExceptionsMapper .up.|> javax.ws.rs.ext.ExceptionMapper
  ca.ulaval.glo4002.game.controllers.exceptionMappers.InvalidResourceExceptionsMapper -up-|> ca.ulaval.glo4002.game.controllers.exceptions.ExceptionsMapper
  ca.ulaval.glo4002.game.controllers.exceptionMappers.InvalidSpeciesExceptionsMapper .up.|> javax.ws.rs.ext.ExceptionMapper
  ca.ulaval.glo4002.game.controllers.exceptionMappers.InvalidSpeciesExceptionsMapper -up-|> ca.ulaval.glo4002.game.controllers.exceptions.ExceptionsMapper
  ca.ulaval.glo4002.game.controllers.exceptionMappers.InvalidWeightExceptionsMapper .up.|> javax.ws.rs.ext.ExceptionMapper
  ca.ulaval.glo4002.game.controllers.exceptionMappers.InvalidWeightExceptionsMapper -up-|> ca.ulaval.glo4002.game.controllers.exceptions.ExceptionsMapper
  ca.ulaval.glo4002.game.controllers.exceptionMappers.NotExistentNameExceptionsMapper .up.|> javax.ws.rs.ext.ExceptionMapper
  ca.ulaval.glo4002.game.controllers.exceptionMappers.NotExistentNameExceptionsMapper -up-|> ca.ulaval.glo4002.game.controllers.exceptions.ExceptionsMapper
  ca.ulaval.glo4002.game.controllers.exceptionMappers.UnknownExceptionGrabber .up.|> javax.ws.rs.ext.ExceptionMapper
  ca.ulaval.glo4002.game.repositories.actions.ActionRepositoryInMemory .up.|> ca.ulaval.glo4002.game.domain.actions.ActionRepository
  ca.ulaval.glo4002.game.repositories.dinosaur.DinosaurRepositoryInMemory .up.|> ca.ulaval.glo4002.game.domain.dinosaur.DinosaurRepository
  ca.ulaval.glo4002.game.repositories.resources.ResourceRepositoryInMemory .up.|> ca.ulaval.glo4002.game.domain.resources.PantryRepository
  ca.ulaval.glo4002.game.repositories.resources.ResourceRepositoryInMemory o-- ca.ulaval.glo4002.game.domain.resources.Resource : consumedResources
  ca.ulaval.glo4002.game.repositories.resources.ResourceRepositoryInMemory o-- ca.ulaval.glo4002.game.domain.resources.Resource : expiredResources
  ca.ulaval.glo4002.game.repositories.turn.TurnRepositoryInMemory .up.|> ca.ulaval.glo4002.game.domain.game.GameRepository
=======
>>>>>>> develop
  ca.ulaval.glo4002.game.exceptions.exceptionMappers.DuplicateNameExceptionMapper .up.|> javax.ws.rs.ext.ExceptionMapper
  ca.ulaval.glo4002.game.exceptions.exceptionMappers.DuplicateNameExceptionMapper -up-|> ca.ulaval.glo4002.game.exceptions.ExceptionResponse
  ca.ulaval.glo4002.game.exceptions.exceptionMappers.InvalidFatherExceptionMapper .up.|> javax.ws.rs.ext.ExceptionMapper
  ca.ulaval.glo4002.game.exceptions.exceptionMappers.InvalidFatherExceptionMapper -up-|> ca.ulaval.glo4002.game.exceptions.ExceptionResponse
  ca.ulaval.glo4002.game.exceptions.exceptionMappers.InvalidGenderExceptionMapper .up.|> javax.ws.rs.ext.ExceptionMapper
  ca.ulaval.glo4002.game.exceptions.exceptionMappers.InvalidGenderExceptionMapper -up-|> ca.ulaval.glo4002.game.exceptions.ExceptionResponse
  ca.ulaval.glo4002.game.exceptions.exceptionMappers.InvalidMotherExceptionMapper .up.|> javax.ws.rs.ext.ExceptionMapper
  ca.ulaval.glo4002.game.exceptions.exceptionMappers.InvalidMotherExceptionMapper -up-|> ca.ulaval.glo4002.game.exceptions.ExceptionResponse
  ca.ulaval.glo4002.game.exceptions.exceptionMappers.InvalidResourceQuantityExceptionMapper .up.|> javax.ws.rs.ext.ExceptionMapper
  ca.ulaval.glo4002.game.exceptions.exceptionMappers.InvalidResourceQuantityExceptionMapper -up-|> ca.ulaval.glo4002.game.exceptions.ExceptionResponse
  ca.ulaval.glo4002.game.exceptions.exceptionMappers.InvalidSpeciesExceptionMapper .up.|> javax.ws.rs.ext.ExceptionMapper
  ca.ulaval.glo4002.game.exceptions.exceptionMappers.InvalidSpeciesExceptionMapper -up-|> ca.ulaval.glo4002.game.exceptions.ExceptionResponse
  ca.ulaval.glo4002.game.exceptions.exceptionMappers.InvalidWeightExceptionMapper .up.|> javax.ws.rs.ext.ExceptionMapper
  ca.ulaval.glo4002.game.exceptions.exceptionMappers.InvalidWeightExceptionMapper -up-|> ca.ulaval.glo4002.game.exceptions.ExceptionResponse
  ca.ulaval.glo4002.game.exceptions.exceptionMappers.NotExistentNameExceptionMapper .up.|> javax.ws.rs.ext.ExceptionMapper
  ca.ulaval.glo4002.game.exceptions.exceptionMappers.NotExistentNameExceptionMapper -up-|> ca.ulaval.glo4002.game.exceptions.ExceptionResponse
  ca.ulaval.glo4002.game.exceptions.exceptionMappers.UnknownExceptionGrabber .up.|> javax.ws.rs.ext.ExceptionMapper
<<<<<<< HEAD
  ca.ulaval.glo4002.game.repositories.actions.ActionRepositoryInMemory .up.|> ca.ulaval.glo4002.game.domain.actions.ActionRepository
  ca.ulaval.glo4002.game.repositories.dinosaur.DinosaurRepositoryInMemory .up.|> ca.ulaval.glo4002.game.domain.dinosaur.DinosaurRepository
  ca.ulaval.glo4002.game.repositories.resourcesGroup.ResourceRepositoryInMemory .up.|> ca.ulaval.glo4002.game.domain.resourcesGroup.ResourceRepository
  ca.ulaval.glo4002.game.repositories.resourcesGroup.ResourceRepositoryInMemory o-- ca.ulaval.glo4002.game.domain.resources.ResourceGrouprces : consumedResources
  ca.ulaval.glo4002.game.repositories.resourcesGroup.ResourceRepositoryInMemory o-- ca.ulaval.glo4002.game.domain.resources.ResourceGrouprces : expiredResources
  ca.ulaval.glo4002.game.repositories.turn.TurnRepositoryInMemory .up.|> ca.ulaval.glo4002.game.domain.game.GameRepository
=======
  ca.ulaval.glo4002.game.infrastructure.persistence.actions.ActionRepositoryInMemory .up.|> ca.ulaval.glo4002.game.domain.actions.ActionRepository
  ca.ulaval.glo4002.game.infrastructure.persistence.dinosaur.DinosaurRepositoryInMemory .up.|> ca.ulaval.glo4002.game.domain.dinosaur.DinosaurRepository
  ca.ulaval.glo4002.game.infrastructure.persistence.resources.PantryRepositoryInMemory .up.|> ca.ulaval.glo4002.game.domain.resources.PantryRepository
  ca.ulaval.glo4002.game.infrastructure.persistence.resources.PantryRepositoryInMemory o-- ca.ulaval.glo4002.game.domain.resources.Resource : consumedResources
  ca.ulaval.glo4002.game.infrastructure.persistence.resources.PantryRepositoryInMemory o-- ca.ulaval.glo4002.game.domain.resources.Resource : expiredResources
  ca.ulaval.glo4002.game.infrastructure.persistence.turn.GameRepositoryInMemory .up.|> ca.ulaval.glo4002.game.domain.game.GameRepository
>>>>>>> develop
>>>>>>> develop


right footer


PlantUML diagram generated by SketchIt! (https://bitbucket.org/pmesmeur/sketch.it)
For more information about this tool, please contact philippe.mesmeur@gmail.com
endfooter

@enduml
